# xmcd CD database file
#
# Track frame offsets:
#	150
#	24340
#	48817
#	78132
#	100617
#	122502
#	146970
#	175515
#	203962
#	224760
#	251325
#	277512
#
# Disc length: 4028 seconds
#
# Revision: 3
# Processed by: cddbd v1.5.2PL0 Copyright (c) Steve Scherf et al.
# Submitted via: CDex 1.51
#
DISCID=960fba0c
DTITLE=Klaus Doldinger - Back In New York - Blind Date
DYEAR=1999
DGENRE=Jazz
TTITLE0=Friendship
TTITLE1=Blue Circle
TTITLE2=Here To Be
TTITLE3=East River Drive
TTITLE4=September Song
TTITLE5=Hasta Mañana
TTITLE6=What's New?
TTITLE7=Blind Date
TTITLE8=Erinnerung
TTITLE9=Stop And Go - Studioconversation 1
TTITLE10=If I Should Lose You - Studioconversation 2
TTITLE11=East River Drive
EXTD=YEAR: 1999
EXTT0=
EXTT1=
EXTT2=
EXTT3=
EXTT4=
EXTT5=
EXTT6=
EXTT7=
EXTT8=
EXTT9=
EXTT10=
EXTT11=
PLAYORDER=
